<svg width="72" height="72" viewBox="0 0 72 72" fill="none" xmlns="http://www.w3.org/2000/svg">
<path d="M67.1704 18.8104C63.9512 13.2947 59.5845 8.92787 54.0693 5.709C48.5533 2.48997 42.5314 0.880859 35.9994 0.880859C29.4683 0.880859 23.4444 2.49046 17.9295 5.709C12.4138 8.9277 8.04734 13.2947 4.82814 18.8104C1.60943 24.3259 0 30.349 0 36.8793C0 44.7237 2.28864 51.7776 6.86706 58.0428C11.445 64.3085 17.359 68.6441 24.6086 71.0501C25.4525 71.2067 26.0772 71.0966 26.4834 70.7224C26.8897 70.3478 27.0926 69.8785 27.0926 69.3167C27.0926 69.223 27.0846 68.3796 27.069 66.7856C27.0529 65.1916 27.0453 63.801 27.0453 62.6145L25.9672 62.801C25.2798 62.9269 24.4126 62.9803 23.3656 62.9652C22.3191 62.9506 21.2328 62.8409 20.108 62.637C18.9827 62.4349 17.9361 61.9662 16.9673 61.2318C15.999 60.4974 15.3115 59.5362 14.9052 58.3495L14.4365 57.2708C14.124 56.5527 13.6322 55.755 12.9602 54.8806C12.2882 54.0053 11.6087 53.412 10.9213 53.0996L10.5931 52.8646C10.3744 52.7085 10.1715 52.5202 9.98381 52.3017C9.79632 52.0831 9.65595 51.8645 9.56221 51.6454C9.4683 51.4263 9.54612 51.2465 9.79649 51.1055C10.0469 50.9644 10.4993 50.896 11.1559 50.896L12.093 51.036C12.718 51.1613 13.4911 51.5354 14.4133 52.1608C15.335 52.7857 16.0927 53.598 16.6865 54.5975C17.4056 55.8791 18.272 56.8556 19.2881 57.5276C20.3034 58.1996 21.327 58.535 22.3581 58.535C23.3891 58.535 24.2796 58.4569 25.0299 58.3014C25.7794 58.1451 26.4825 57.9101 27.1391 57.5979C27.4203 55.5033 28.186 53.8942 29.4356 52.7694C27.6546 52.5822 26.0534 52.3004 24.6311 51.9255C23.2096 51.5502 21.7407 50.9411 20.2254 50.0966C18.7092 49.2532 17.4514 48.2059 16.4518 46.9565C15.4519 45.7065 14.6314 44.0654 13.9912 42.0346C13.3508 40.0031 13.0305 37.6596 13.0305 35.0036C13.0305 31.2217 14.2651 28.0035 16.7338 25.3471C15.5774 22.5039 15.6865 19.3165 17.0617 15.7854C17.9679 15.5038 19.3119 15.7151 21.0929 16.418C22.8742 17.1212 24.1785 17.7235 25.0069 18.223C25.8353 18.7222 26.4991 19.1453 26.9992 19.4884C29.906 18.6763 32.9057 18.2701 35.9991 18.2701C39.0925 18.2701 42.0929 18.6763 44.9998 19.4884L46.781 18.364C47.999 17.6137 49.4374 16.9261 51.0926 16.3011C52.7488 15.6764 54.0153 15.5043 54.8907 15.7859C56.2964 19.3172 56.4217 22.5044 55.2649 25.3476C57.7334 28.004 58.9685 31.223 58.9685 35.0041C58.9685 37.6601 58.6471 40.011 58.0076 42.0581C57.3673 44.1056 56.5397 45.7451 55.5244 46.98C54.508 48.2148 53.2422 49.2539 51.7268 50.0971C50.2111 50.941 48.7418 51.5501 47.3203 51.9254C45.8982 52.3007 44.297 52.5827 42.516 52.7702C44.1403 54.1759 44.9527 56.3948 44.9527 59.4258V69.3154C44.9527 69.8772 45.1481 70.3463 45.5391 70.7211C45.9297 71.0953 46.5465 71.2054 47.3904 71.0486C54.641 68.6429 60.555 64.3072 65.1328 58.0415C69.71 51.7763 71.9995 44.7224 71.9995 36.878C71.9979 30.3485 70.3876 24.3259 67.1704 18.8104Z" fill="black"/>
</svg>
