<svg width="1154" height="336" viewBox="0 0 1154 336" fill="none" xmlns="http://www.w3.org/2000/svg">
<path d="M287.75 287C272.25 287 260.667 281.583 253 270.75C245.5 259.75 241.75 243.167 241.75 221V128.5C241.75 108.667 246.167 93.6667 255 83.5C263.833 73.3333 277 68.25 294.5 68.25C308.667 68.25 319.667 71.0833 327.5 76.75C335.333 82.4167 340.75 90.6667 343.75 101.5C346.75 112.333 348.25 126.25 348.25 143.25H306.25V124C306.25 118.833 305.5 114.833 304 112C302.667 109.167 300.167 107.75 296.5 107.75C288.333 107.75 284.25 113.083 284.25 123.75V227.75C284.25 234.25 285.083 239.167 286.75 242.5C288.417 245.833 291.333 247.5 295.5 247.5C299.667 247.5 302.583 245.833 304.25 242.5C305.917 239.167 306.75 234.25 306.75 227.75V197H295.25V160H347.75V285H330.5L323.25 267C315.583 280.333 303.75 287 287.75 287ZM362.838 285V70.25H404.338V285H362.838ZM439.979 285V111.5H414.479V70.25H508.479V111.5H482.979V285H439.979Z" fill="#EC1F1F"/>
<path d="M520.6 70.25H586.6C597.1 70.25 605.183 72.6667 610.85 77.5C616.683 82.1667 620.6 88.8333 622.6 97.5C624.6 106 625.6 116.917 625.6 130.25C625.6 142.417 624.016 151.917 620.85 158.75C617.683 165.583 612.183 170.333 604.35 173C610.85 174.333 615.516 177.583 618.35 182.75C621.35 187.917 622.85 194.917 622.85 203.75L622.35 285H580.35V201C580.35 195 579.183 191.167 576.85 189.5C574.516 187.833 570.266 187 564.1 187V285H520.6V70.25ZM574.6 149.75C580.6 149.75 583.6 143.25 583.6 130.25C583.6 124.583 583.35 120.333 582.85 117.5C582.35 114.667 581.433 112.75 580.1 111.75C578.766 110.583 576.85 110 574.35 110H564.35V149.75H574.6ZM639.74 285V70.25H725.74V111.75H683.49V153.5H723.99V194H683.49V243.25H728.49V285H639.74ZM742.768 70.25H799.518C816.684 70.25 828.934 75.8333 836.268 87C843.601 98 847.268 114.167 847.268 135.5C847.268 156.833 844.018 172.917 837.518 183.75C831.018 194.583 819.351 200 802.518 200H785.018V285H742.768V70.25ZM787.518 161.25C792.684 161.25 796.434 160.333 798.768 158.5C801.268 156.5 802.851 153.75 803.518 150.25C804.351 146.583 804.768 141.417 804.768 134.75C804.768 125.75 803.768 119.25 801.768 115.25C799.768 111.25 795.768 109.25 789.768 109.25H785.018V161.25H787.518ZM911.938 287C894.604 287 881.438 281.75 872.438 271.25C863.438 260.583 858.938 245.667 858.938 226.5V124.25C858.938 105.75 863.438 91.8333 872.438 82.5C881.438 73 894.604 68.25 911.938 68.25C929.271 68.25 942.438 73 951.438 82.5C960.438 91.8333 964.938 105.75 964.938 124.25V226.5C964.938 245.833 960.438 260.75 951.438 271.25C942.438 281.75 929.271 287 911.938 287ZM911.938 247.5C915.771 247.5 918.354 245.833 919.688 242.5C921.021 239.167 921.688 234.5 921.688 228.5V123.5C921.688 118.833 921.021 115.083 919.688 112.25C918.521 109.25 916.021 107.75 912.188 107.75C905.021 107.75 901.438 113.167 901.438 124V228.75C901.438 234.917 902.188 239.583 903.688 242.75C905.188 245.917 907.938 247.5 911.938 247.5ZM1033.27 287C1013.77 287 999.686 282.167 991.02 272.5C982.353 262.833 978.02 247.25 978.02 225.75V204.75H1020.27V231.5C1020.27 242.167 1023.69 247.5 1030.52 247.5C1034.35 247.5 1037.02 246.417 1038.52 244.25C1040.02 241.917 1040.77 238.083 1040.77 232.75C1040.77 225.75 1039.94 220 1038.27 215.5C1036.6 210.833 1034.44 207 1031.77 204C1029.27 200.833 1024.69 196 1018.02 189.5L999.52 171C985.186 157 978.02 141.5 978.02 124.5C978.02 106.167 982.186 92.25 990.52 82.75C999.02 73.0833 1011.35 68.25 1027.52 68.25C1046.85 68.25 1060.77 73.4167 1069.27 83.75C1077.77 93.9167 1082.02 109.917 1082.02 131.75H1038.27L1038.02 117C1038.02 114.167 1037.19 111.917 1035.52 110.25C1034.02 108.583 1031.85 107.75 1029.02 107.75C1025.69 107.75 1023.19 108.667 1021.52 110.5C1019.85 112.333 1019.02 114.833 1019.02 118C1019.02 125 1023.02 132.25 1031.02 139.75L1056.02 163.75C1061.85 169.417 1066.69 174.833 1070.52 180C1074.35 185 1077.44 191 1079.77 198C1082.1 204.833 1083.27 213 1083.27 222.5C1083.27 243.667 1079.35 259.75 1071.52 270.75C1063.85 281.583 1051.1 287 1033.27 287Z" fill="black"/>
<path d="M194.048 126.341C184.748 110.407 172.133 97.7915 156.2 88.4925C140.265 79.1931 122.868 74.5446 103.998 74.5446C85.1305 74.5446 67.7283 79.1945 51.7964 88.4925C35.8621 97.791 23.2479 110.407 13.948 126.341C4.64948 142.275 0 159.675 0 178.54C0 201.202 6.61162 221.58 19.8382 239.679C33.0633 257.78 50.1482 270.305 71.0915 277.256C73.5294 277.708 75.3341 277.39 76.5075 276.309C77.6813 275.227 78.2676 273.871 78.2676 272.248C78.2676 271.977 78.2443 269.541 78.1993 264.936C78.1528 260.331 78.131 256.314 78.131 252.886L75.0163 253.425C73.0304 253.789 70.5252 253.943 67.5007 253.899C64.4775 253.857 61.3391 253.54 58.0898 252.951C54.839 252.367 51.8154 251.013 49.0166 248.892C46.2192 246.77 44.2334 243.993 43.0595 240.565L41.7054 237.449C40.8028 235.374 39.3818 233.07 37.4406 230.544C35.4993 228.015 33.5362 226.301 31.5503 225.399L30.6022 224.72C29.9705 224.269 29.3842 223.725 28.8421 223.094C28.3005 222.462 27.895 221.831 27.6241 221.198C27.3529 220.565 27.5777 220.045 28.301 219.638C29.0243 219.23 30.3314 219.033 32.2281 219.033L34.9353 219.437C36.741 219.799 38.9744 220.88 41.6385 222.687C44.3012 224.492 46.49 226.839 48.2055 229.726C50.2829 233.428 52.7858 236.249 55.7212 238.191C58.6542 240.132 61.6114 241.101 64.5899 241.101C67.5685 241.101 70.141 240.875 72.3086 240.426C74.4737 239.975 76.5051 239.296 78.4018 238.394C79.2142 232.343 81.4263 227.694 85.0362 224.445C79.891 223.904 75.2653 223.09 71.1565 222.007C67.0501 220.923 62.8066 219.163 58.4289 216.723C54.0488 214.287 50.4153 211.261 47.5273 207.652C44.6389 204.041 42.2684 199.3 40.4191 193.433C38.5689 187.564 37.6435 180.794 37.6435 173.121C37.6435 162.196 41.2102 152.899 48.3421 145.225C45.0012 137.011 45.3166 127.803 49.2893 117.602C51.9074 116.789 55.7899 117.399 60.935 119.43C66.0811 121.461 69.8489 123.201 72.2422 124.644C74.6354 126.086 76.553 127.309 77.9977 128.3C86.395 125.953 95.0608 124.78 103.997 124.78C112.934 124.78 121.602 125.953 129.999 128.3L135.145 125.051C138.664 122.884 142.819 120.898 147.601 119.092C152.386 117.287 156.044 116.79 158.573 117.604C162.634 127.805 162.996 137.013 159.654 145.226C166.785 152.9 170.354 162.2 170.354 173.123C170.354 180.796 169.425 187.587 167.578 193.501C165.728 199.416 163.337 204.152 160.404 207.72C157.468 211.287 153.811 214.289 149.433 216.725C145.054 219.163 140.81 220.922 136.703 222.006C132.595 223.091 127.969 223.906 122.824 224.447C127.517 228.508 129.863 234.918 129.863 243.674V272.244C129.863 273.867 130.428 275.222 131.558 276.305C132.686 277.386 134.468 277.704 136.906 277.251C157.852 270.302 174.937 257.776 188.161 239.675C201.385 221.576 207.999 201.198 207.999 178.536C207.994 159.673 203.342 142.275 194.048 126.341Z" fill="black"/>
</svg>
